<?xml version="1.0" encoding="utf-8"?>
<!-- Generator: Adobe Illustrator 22.0.1, SVG Export Plug-In . SVG Version: 6.00 Build 0)  -->

<svg version="1.1" id="Layer_1" xmlns="http://www.w3.org/2000/svg" xmlns:xlink="http://www.w3.org/1999/xlink" x="0px" y="0px"
	 viewBox="0 0 634 349" style="enable-background:new 0 0 634 349;" xml:space="preserve">
<style type="text/css">
	.st0{fill:#003580;}
	.st1{fill:#FFFFFF;}
	.st2{font-family:'ArialMT';}
	.st3{font-size:60px;}
	.st4{fill:#CCCC33;}
	.st5{fill:none;}
	.st6{fill:none;stroke:#C5C82E;stroke-width:4;stroke-linecap:round;stroke-miterlimit:10;}
	.st7{fill:none;stroke:#C5C82E;stroke-width:4;stroke-linecap:round;stroke-miterlimit:10;}
	.st8{fill:none;stroke:#C5C82E;stroke-width:4;stroke-linecap:round;stroke-miterlimit:10;}
	.st9{font-family:'MyriadPro-Regular';}
	.st10{font-size:20px;}


	.st1{
	-wenkit-animation: colortxt 4s linear forwards;
	-o-animation: colortxt 4s linear forwards;
	-moz-animation: colortxt 4s linear forwards;
	animation: colortxt 4s linear forwards;
	}

	@-webkit-keyframes colortxt {
		from{
			fill: black;
	 }
	 to {
		 fill: white;
	 }
	}

	.st3{
	-wenkit-animation: txt 4s linear forwards;
	-o-animation: txt 4s linear forwards;
	-moz-animation: txt 4s linear forwards;
	animation: txt 4s linear forwards;
	}

	@-webkit-keyframes txt {
		from{
			font-size:0px;
	 }
	 to {
		 font-size:60px;
	 }
	}

	.st4{
	-wenkit-animation: line 4s linear forwards;
	-o-animation: line 4s linear forwards;
	-moz-animation: line 4s linear forwards;
	animation: line 4s linear forwards;
	}

	@-webkit-keyframes line {
		from{
			width: 0;
			fill: red;
	 }
	 to {
		 width: 300;
		 fill: #CCCC33;
	 }
	}

	.st6:hover, .st7:hover, .st8:hover{
	 fill: #C5C82E;
	}
	.st6, .st7, .st8{
	stroke-dasharray: 250;
	stroke-dashoffset: 0;
	-wenkit-animation: dash 4s linear forwards;
	-o-animation: dash 4s linear forwards;
	-moz-animation: dash 4s linear forwards;
	animation: dash 4s linear forwards;
	}

	@-webkit-keyframes dash {
		from{
			stroke-dashoffset: 250;
			fill: red;
	 }
	 to {
		 stroke-dashoffset: 0;
		 fill: #C5C82E;
	 }
	}


</style>


<rect class="st0" width="634" height="349"/>
<text transform="matrix(1 0 0 1 204.3335 147)" class="st1 st2 st3">MELLOW</text>
<text transform="matrix(1 0 0 1 221.3335 237)" class="st1 st2 st3">CREEK</text>
<rect x="180.5" y="168" class="st4" width="300" height="4"/>
<line class="st5" x1="314.5" y1="75" x2="326" y2="60.5"/>
<line class="st5" x1="337" y1="75" x2="326" y2="60.5"/>
<polygon class="st6" points="328.7,68.4 348.5,83.4 343.8,60.7 365.7,47.5 339.1,47.4 328.3,23 319.2,48 295.3,47.2 314.9,59.6
	310,83.4 "/>
<path class="st7" d="M260.2,79.7l13,9.7c0.6,0.4,1.4-0.1,1.3-0.8l-3-14.6c-0.1-0.3,0.1-0.7,0.4-0.8l13.9-8.3
	c0.7-0.4,0.4-1.4-0.4-1.4l-17.2,0c-0.3,0-0.6-0.2-0.7-0.5l-7.3-16.2c-0.3-0.6-1.2-0.6-1.5,0l-6.1,16.5c-0.1,0.3-0.4,0.5-0.8,0.5
	l-14.9-0.4c-0.8,0-1.1,1-0.4,1.4l12.2,7.5c0.3,0.2,0.4,0.5,0.4,0.8l-3.2,15.4c-0.1,0.7,0.7,1.2,1.3,0.8l12.2-9.6
	C259.5,79.5,259.9,79.5,260.2,79.7z"/>
<path class="st8" d="M396.2,79.5l13,9.7c0.6,0.4,1.4-0.1,1.3-0.8l-3-14.6c-0.1-0.3,0.1-0.7,0.4-0.8l13.9-8.3
	c0.7-0.4,0.4-1.4-0.4-1.4l-17.2,0c-0.3,0-0.6-0.2-0.7-0.5l-7.3-16.2c-0.3-0.6-1.2-0.6-1.5,0l-6.1,16.5c-0.1,0.3-0.4,0.5-0.8,0.5
	l-14.9-0.4c-0.8,0-1.1,1-0.4,1.4l12.2,7.5c0.3,0.2,0.4,0.5,0.4,0.8l-3.2,15.4c-0.1,0.7,0.7,1.2,1.3,0.8l12.2-9.6
	C395.5,79.3,395.9,79.3,396.2,79.5z"/>
<rect x="323.7" y="269.7" class="st5" width="49.3" height="0.7"/>

</svg>
